<svg width="625" height="311" viewBox="0 0 625 311" fill="none" xmlns="http://www.w3.org/2000/svg">
<path d="M378.35 16.301H343.597C341.614 16.301 340 14.6866 340 12.704C340 10.7214 341.614 9.10693 343.597 9.10693H378.35C380.332 9.10693 381.947 10.7214 381.947 12.704C381.947 14.6866 380.332 16.301 378.35 16.301ZM343.597 10.2682C342.238 10.2682 341.133 11.3728 341.133 12.7323C341.133 14.0918 342.238 15.1964 343.597 15.1964H378.35C379.709 15.1964 380.814 14.0918 380.814 12.7323C380.814 11.3728 379.709 10.2682 378.35 10.2682H343.597Z" fill="#E1DCDC"/>
<path d="M416.006 171.008H381.253C379.271 171.008 377.656 169.394 377.656 167.411C377.656 165.428 379.271 163.814 381.253 163.814H416.006C417.989 163.814 419.603 165.428 419.603 167.411C419.603 169.394 417.989 171.008 416.006 171.008ZM381.253 164.975C379.894 164.975 378.789 166.08 378.789 167.439C378.789 168.799 379.894 169.903 381.253 169.903H416.006C417.365 169.903 418.47 168.799 418.47 167.439C418.47 166.08 417.365 164.975 416.006 164.975H381.253Z" fill="#E1DCDC"/>
<path d="M568.959 214.059H534.206C532.224 214.059 530.609 212.444 530.609 210.462C530.609 208.479 532.224 206.865 534.206 206.865H568.959C570.942 206.865 572.556 208.479 572.556 210.462C572.556 212.444 570.942 214.059 568.959 214.059ZM534.206 208.026C532.847 208.026 531.742 209.131 531.742 210.49C531.742 211.85 532.847 212.954 534.206 212.954H568.959C570.319 212.954 571.423 211.85 571.423 210.49C571.423 209.131 570.319 208.026 568.959 208.026H534.206Z" fill="#E1DCDC"/>
<path d="M94.256 201.597H59.5033C57.5207 201.597 55.9062 199.983 55.9062 198C55.9062 196.017 57.5207 194.403 59.5033 194.403H94.256C96.2386 194.403 97.853 196.017 97.853 198C97.853 199.983 96.2386 201.597 94.256 201.597ZM59.5033 195.564C58.1438 195.564 57.0392 196.669 57.0392 198.028C57.0392 199.388 58.1438 200.492 59.5033 200.492H94.256C95.6155 200.492 96.7201 199.388 96.7201 198.028C96.7201 196.669 95.6155 195.564 94.256 195.564H59.5033Z" fill="#E1DCDC"/>
<path d="M187.893 77.7761H157.644C155.661 77.7761 154.047 76.1617 154.047 74.1791C154.047 72.1965 155.661 70.582 157.644 70.582H187.893C189.876 70.582 191.49 72.1965 191.49 74.1791C191.49 76.1617 189.876 77.7761 187.893 77.7761ZM157.644 71.715C156.284 71.715 155.18 72.8196 155.18 74.1791C155.18 75.5386 156.284 76.6432 157.644 76.6432H187.893C189.253 76.6432 190.357 75.5386 190.357 74.1791C190.357 72.8196 189.253 71.715 187.893 71.715H157.644Z" fill="#E1DCDC"/>
<path d="M159.204 153.249C156.711 153.249 154.672 151.209 154.672 148.717C154.672 146.224 156.711 144.185 159.204 144.185C161.696 144.185 163.735 146.224 163.735 148.717C163.735 151.209 161.724 153.249 159.204 153.249ZM159.204 145.318C157.334 145.318 155.805 146.847 155.805 148.717C155.805 150.586 157.334 152.116 159.204 152.116C161.073 152.116 162.602 150.586 162.602 148.717C162.602 146.847 161.101 145.318 159.204 145.318Z" fill="#E1DCDC"/>
<path d="M304.782 144.384C302.289 144.384 300.25 142.345 300.25 139.853C300.25 137.36 302.289 135.321 304.782 135.321C307.274 135.321 309.313 137.36 309.313 139.853C309.313 142.345 307.302 144.384 304.782 144.384ZM304.782 136.454C302.912 136.454 301.383 137.983 301.383 139.853C301.383 141.722 302.912 143.251 304.782 143.251C306.651 143.251 308.181 141.722 308.181 139.853C308.181 137.983 306.679 136.454 304.782 136.454Z" fill="#E1DCDC"/>
<path d="M7.53172 67.5229C5.03927 67.5229 3 65.4836 3 62.9912C3 60.4987 5.03927 58.4595 7.53172 58.4595C10.0242 58.4595 12.0634 60.4987 12.0634 62.9912C12.0634 65.4836 10.0242 67.5229 7.53172 67.5229ZM7.53172 59.5924C5.66239 59.5924 4.13293 61.1219 4.13293 62.9912C4.13293 64.8605 5.66239 66.39 7.53172 66.39C9.40106 66.39 10.9305 64.8605 10.9305 62.9912C10.9305 61.1219 9.40106 59.5924 7.53172 59.5924Z" fill="#E1DCDC"/>
<path d="M178.493 9.06344C176 9.06344 173.961 7.02417 173.961 4.53172C173.961 2.03927 176 0 178.493 0C180.985 0 183.024 2.03927 183.024 4.53172C183.024 7.02417 180.985 9.06344 178.493 9.06344ZM178.493 1.13293C176.623 1.13293 175.094 2.66239 175.094 4.53172C175.094 6.40106 176.623 7.93051 178.493 7.93051C180.362 7.93051 181.891 6.40106 181.891 4.53172C181.891 2.66239 180.362 1.13293 178.493 1.13293Z" fill="#E1DCDC"/>
<path d="M617.188 161.492C614.696 161.492 612.656 159.452 612.656 156.96C612.656 154.467 614.696 152.428 617.188 152.428C619.68 152.428 621.72 154.467 621.72 156.96C621.72 159.452 619.68 161.492 617.188 161.492ZM617.188 153.561C615.319 153.561 613.789 155.091 613.789 156.96C613.789 158.829 615.319 160.359 617.188 160.359C619.057 160.359 620.587 158.829 620.587 156.96C620.587 155.091 619.057 153.561 617.188 153.561Z" fill="#E1DCDC"/>
<path d="M486.25 139.286C483.758 139.286 481.719 137.246 481.719 134.754C481.719 132.261 483.758 130.222 486.25 130.222C488.743 130.222 490.782 132.261 490.782 134.754C490.782 137.246 488.743 139.286 486.25 139.286ZM486.25 131.355C484.381 131.355 482.852 132.885 482.852 134.754C482.852 136.623 484.381 138.153 486.25 138.153C488.12 138.153 489.649 136.623 489.649 134.754C489.649 132.885 488.12 131.355 486.25 131.355Z" fill="#E1DCDC"/>
<path d="M619.766 81.5717C617.274 81.5717 615.234 79.5325 615.234 77.04C615.234 74.5476 617.274 72.5083 619.766 72.5083C622.259 72.5083 624.298 74.5476 624.298 77.04C624.298 79.5325 622.259 81.5717 619.766 81.5717ZM619.766 73.6412C617.897 73.6412 616.367 75.1707 616.367 77.04C616.367 78.9094 617.897 80.4388 619.766 80.4388C621.635 80.4388 623.165 78.9094 623.165 77.04C623.165 75.1707 621.635 73.6412 619.766 73.6412Z" fill="#E1DCDC"/>
<path d="M444.735 72.5073C442.242 72.5073 440.203 70.468 440.203 67.9756C440.203 65.4831 442.242 63.4438 444.735 63.4438C447.227 63.4438 449.267 65.4831 449.267 67.9756C449.267 70.468 447.227 72.5073 444.735 72.5073ZM444.735 64.5768C442.866 64.5768 441.336 66.1062 441.336 67.9756C441.336 69.8449 442.866 71.3744 444.735 71.3744C446.604 71.3744 448.134 69.8449 448.134 67.9756C448.134 66.1062 446.604 64.5768 444.735 64.5768Z" fill="#E1DCDC"/>
<path d="M4.53172 197.037C2.03927 197.037 0 194.998 0 192.505C0 190.013 2.03927 187.974 4.53172 187.974C7.02417 187.974 9.06344 190.013 9.06344 192.505C9.06344 194.998 7.05249 197.037 4.53172 197.037ZM4.53172 189.107C2.66239 189.107 1.13293 190.636 1.13293 192.505C1.13293 194.375 2.66239 195.904 4.53172 195.904C6.40106 195.904 7.93051 194.375 7.93051 192.505C7.93051 190.636 6.40106 189.107 4.53172 189.107Z" fill="#E1DCDC"/>
<path d="M50.5595 299.635C55.8736 299.635 60.1815 294.401 60.1815 287.944C60.1815 281.487 55.8736 276.253 50.5595 276.253C45.2454 276.253 40.9375 281.487 40.9375 287.944C40.9375 294.401 45.2454 299.635 50.5595 299.635Z" fill="#DBC9C9"/>
<path d="M50.5593 307.169C50.3505 307.169 50.1797 306.999 50.1797 306.79V292.499C50.1797 292.29 50.3505 292.12 50.5593 292.12C50.768 292.12 50.9388 292.29 50.9388 292.499V306.79C50.9388 306.999 50.768 307.169 50.5593 307.169Z" fill="#D0BBBB"/>
<path d="M35.9234 300.014C30.4008 300.014 25.9219 294.606 25.9219 287.944C25.9219 281.283 30.4008 275.874 35.9234 275.874C41.4461 275.874 45.925 281.283 45.925 287.944C45.925 294.606 41.4461 300.014 35.9234 300.014ZM35.9234 276.652C30.8183 276.652 26.681 281.719 26.681 287.963C26.681 294.207 30.8373 299.274 35.9234 299.274C41.0096 299.274 45.1659 294.207 45.1659 287.963C45.1659 281.719 41.0286 276.652 35.9234 276.652Z" fill="#D0BBBB"/>
<path d="M35.9264 307.169C35.7177 307.169 35.5469 306.999 35.5469 306.79V292.499C35.5469 292.29 35.7177 292.12 35.9264 292.12C36.1352 292.12 36.306 292.29 36.306 292.499V306.79C36.306 306.999 36.1352 307.169 35.9264 307.169Z" fill="#D0BBBB"/>
<path d="M109.049 307.016H72.8952C72.6864 307.016 72.5156 306.846 72.5156 306.637V264.296C72.5156 264.088 72.6864 263.917 72.8952 263.917H81.9858V239.871C81.9858 239.663 82.1566 239.492 82.3654 239.492H99.5976C99.8064 239.492 99.9772 239.663 99.9772 239.871V263.917H109.068C109.277 263.917 109.447 264.088 109.447 264.296V306.637C109.428 306.846 109.258 307.016 109.049 307.016ZM73.2748 306.257H108.688V264.676H99.5976C99.3889 264.676 99.2181 264.505 99.2181 264.296V240.251H82.7449V264.296C82.7449 264.505 82.5741 264.676 82.3654 264.676H73.2748V306.257Z" fill="#D0BBBB"/>
<path d="M95.4244 246.855H86.5046C86.2958 246.855 86.125 246.684 86.125 246.475C86.125 246.267 86.2958 246.096 86.5046 246.096H95.4244C95.6331 246.096 95.8039 246.267 95.8039 246.475C95.8039 246.684 95.6521 246.855 95.4244 246.855Z" fill="#D0BBBB"/>
<path d="M95.4244 252.548H86.5046C86.2958 252.548 86.125 252.377 86.125 252.169C86.125 251.96 86.2958 251.789 86.5046 251.789H95.4244C95.6331 251.789 95.8039 251.96 95.8039 252.169C95.8039 252.377 95.6521 252.548 95.4244 252.548Z" fill="#D0BBBB"/>
<path d="M95.4244 258.243H86.5046C86.2958 258.243 86.125 258.072 86.125 257.863C86.125 257.654 86.2958 257.483 86.5046 257.483H95.4244C95.6331 257.483 95.8039 257.654 95.8039 257.863C95.8039 258.072 95.6521 258.243 95.4244 258.243Z" fill="#D0BBBB"/>
<path d="M99.5728 264.676H82.3405C82.1317 264.676 81.9609 264.505 81.9609 264.296C81.9609 264.087 82.1317 263.917 82.3405 263.917H99.5728C99.7816 263.917 99.9524 264.087 99.9524 264.296C99.9524 264.505 99.8005 264.676 99.5728 264.676Z" fill="#D0BBBB"/>
<path d="M102.634 285.552H79.3093C79.1005 285.552 78.9297 285.381 78.9297 285.172C78.9297 284.963 79.1005 284.792 79.3093 284.792H102.634C102.842 284.792 103.013 284.963 103.013 285.172C103.013 285.381 102.842 285.552 102.634 285.552Z" fill="#D0BBBB"/>
<path d="M102.634 291.643H79.3093C79.1005 291.643 78.9297 291.473 78.9297 291.264C78.9297 291.055 79.1005 290.884 79.3093 290.884H102.634C102.842 290.884 103.013 291.055 103.013 291.264C103.013 291.473 102.842 291.643 102.634 291.643Z" fill="#D0BBBB"/>
<path d="M103.377 272.115H99.0312V276.461H103.377V272.115Z" fill="#DBC9C9"/>
<path d="M93.1507 272.115H88.8047V276.461H93.1507V272.115Z" fill="#DBC9C9"/>
<path d="M82.9163 272.115H78.5703V276.461H82.9163V272.115Z" fill="#DBC9C9"/>
<path d="M164.62 307.131H130.497C130.288 307.131 130.117 306.96 130.117 306.751V212.505C130.117 212.296 130.288 212.125 130.497 212.125H142.358C142.567 212.125 142.738 212.296 142.738 212.505V247.311H164.62C164.828 247.311 164.999 247.482 164.999 247.691V306.751C164.999 306.96 164.828 307.131 164.62 307.131ZM130.876 306.372H164.24V248.07H142.358C142.149 248.07 141.979 247.899 141.979 247.691V212.885H130.876V306.372Z" fill="#D0BBBB"/>
<path d="M158.049 266.973H149.13C148.921 266.973 148.75 266.802 148.75 266.593C148.75 266.384 148.921 266.213 149.13 266.213H158.049C158.258 266.213 158.429 266.384 158.429 266.593C158.429 266.802 158.277 266.973 158.049 266.973Z" fill="#D0BBBB"/>
<path d="M158.049 272.666H149.13C148.921 272.666 148.75 272.495 148.75 272.286C148.75 272.077 148.921 271.907 149.13 271.907H158.049C158.258 271.907 158.429 272.077 158.429 272.286C158.429 272.495 158.277 272.666 158.049 272.666Z" fill="#D0BBBB"/>
<path d="M158.049 278.36H149.13C148.921 278.36 148.75 278.189 148.75 277.981C148.75 277.772 148.921 277.601 149.13 277.601H158.049C158.258 277.601 158.429 277.772 158.429 277.981C158.429 278.189 158.277 278.36 158.049 278.36Z" fill="#D0BBBB"/>
<path d="M136.13 306.998C135.921 306.998 135.75 306.828 135.75 306.619V212.486C135.75 212.278 135.921 212.107 136.13 212.107C136.338 212.107 136.509 212.278 136.509 212.486V306.619C136.509 306.828 136.338 306.998 136.13 306.998Z" fill="#D0BBBB"/>
<path d="M142.348 307.131C142.14 307.131 141.969 306.96 141.969 306.751V247.691C141.969 247.482 142.14 247.311 142.348 247.311C142.557 247.311 142.728 247.482 142.728 247.691V306.751C142.728 306.96 142.557 307.131 142.348 307.131Z" fill="#D0BBBB"/>
<path d="M217.381 307.169H186.067C185.858 307.169 185.688 306.998 185.688 306.789V229.567C185.688 229.358 185.858 229.187 186.067 229.187H217.381C217.59 229.187 217.761 229.358 217.761 229.567V306.789C217.761 306.998 217.609 307.169 217.381 307.169ZM186.447 306.41H217.002V229.946H186.447V306.41Z" fill="#D0BBBB"/>
<path d="M209.018 233.59H204.672V237.936H209.018V233.59Z" fill="#DBC9C9"/>
<path d="M198.784 233.59H194.438V237.936H198.784V233.59Z" fill="#DBC9C9"/>
<path d="M217.174 242.87H186.239C186.03 242.87 185.859 242.699 185.859 242.49C185.859 242.282 186.03 242.111 186.239 242.111H217.174C217.382 242.111 217.553 242.282 217.553 242.49C217.553 242.699 217.382 242.87 217.174 242.87Z" fill="#D0BBBB"/>
<path d="M205.463 253.84H198.023V284.49H205.463V253.84Z" fill="#DBC9C9"/>
<path d="M206.278 307.169H197.169C196.96 307.169 196.789 306.998 196.789 306.789V298.685C196.789 295.971 199.01 293.751 201.723 293.751C204.437 293.751 206.658 295.971 206.658 298.685V306.789C206.658 306.998 206.487 307.169 206.278 307.169ZM197.548 306.41H205.899V298.685C205.899 296.389 204.02 294.51 201.723 294.51C199.427 294.51 197.548 296.389 197.548 298.685V306.41Z" fill="#D0BBBB"/>
<path d="M272.644 307.168H238.825C238.616 307.168 238.445 306.997 238.445 306.788V250.689C238.445 250.48 238.616 250.309 238.825 250.309H272.644C272.853 250.309 273.024 250.48 273.024 250.689V306.788C273.024 306.997 272.872 307.168 272.644 307.168ZM239.223 306.409H272.284V251.068H239.223V306.409Z" fill="#D0BBBB"/>
<path d="M267.042 264.372H244.458C244.249 264.372 244.078 264.201 244.078 263.993V259.628C244.078 259.419 244.249 259.248 244.458 259.248H267.042C267.251 259.248 267.421 259.419 267.421 259.628V263.993C267.421 264.201 267.251 264.372 267.042 264.372ZM244.837 263.613H266.662V260.007H244.837V263.613Z" fill="#D0BBBB"/>
<path d="M250.731 307.168C250.522 307.168 250.352 306.997 250.352 306.789V272.628C250.352 272.419 250.522 272.248 250.731 272.248C250.94 272.248 251.111 272.419 251.111 272.628V306.789C251.111 306.997 250.94 307.168 250.731 307.168Z" fill="#D0BBBB"/>
<path d="M260.786 307.168C260.577 307.168 260.406 306.997 260.406 306.789V272.628C260.406 272.419 260.577 272.248 260.786 272.248C260.995 272.248 261.165 272.419 261.165 272.628V306.789C261.165 306.997 260.995 307.168 260.786 307.168Z" fill="#D0BBBB"/>
<path d="M267.037 270.578H244.453V274.943H267.037V270.578Z" fill="#DBC9C9"/>
<path d="M323.86 307.055H294.083C293.874 307.055 293.703 306.884 293.703 306.676V269.156C293.703 268.947 293.874 268.776 294.083 268.776H298.581V263.31C298.581 263.101 298.751 262.931 298.96 262.931H318.963C319.172 262.931 319.343 263.101 319.343 263.31V268.776H323.841C324.049 268.776 324.22 268.947 324.22 269.156V306.676C324.239 306.903 324.068 307.055 323.86 307.055ZM294.481 306.296H323.499V269.535H319.001C318.792 269.535 318.622 269.364 318.622 269.156V263.69H299.378V269.156C299.378 269.364 299.207 269.535 298.998 269.535H294.5V306.296H294.481Z" fill="#D0BBBB"/>
<path d="M313.44 277.032H304.52C304.311 277.032 304.141 276.861 304.141 276.653C304.141 276.444 304.311 276.273 304.52 276.273H313.44C313.649 276.273 313.82 276.444 313.82 276.653C313.82 276.861 313.649 277.032 313.44 277.032Z" fill="#D0BBBB"/>
<path d="M313.44 282.725H304.52C304.311 282.725 304.141 282.555 304.141 282.346C304.141 282.137 304.311 281.966 304.52 281.966H313.44C313.649 281.966 313.82 282.137 313.82 282.346C313.82 282.555 313.649 282.725 313.44 282.725Z" fill="#D0BBBB"/>
<path d="M313.44 288.419H304.52C304.311 288.419 304.141 288.248 304.141 288.04C304.141 287.831 304.311 287.66 304.52 287.66H313.44C313.649 287.66 313.82 287.831 313.82 288.04C313.82 288.248 313.649 288.419 313.44 288.419Z" fill="#D0BBBB"/>
<path d="M318.981 306.448C318.772 306.448 318.602 306.277 318.602 306.068V269.174C318.602 268.966 318.772 268.795 318.981 268.795C319.19 268.795 319.361 268.966 319.361 269.174V306.068C319.361 306.277 319.19 306.448 318.981 306.448Z" fill="#D0BBBB"/>
<path d="M298.973 306.96C298.765 306.96 298.594 306.789 298.594 306.581V269.174C298.594 268.966 298.765 268.795 298.973 268.795C299.182 268.795 299.353 268.966 299.353 269.174V306.581C299.353 306.789 299.182 306.96 298.973 306.96Z" fill="#D0BBBB"/>
<path d="M306.75 254.447C306.75 253.138 307.661 252.189 308.989 252.189C310.299 252.189 311.172 253.138 311.191 254.447C311.191 255.738 310.318 256.706 308.989 256.706C307.642 256.706 306.75 255.738 306.75 254.447Z" fill="#DBC9C9"/>
<path d="M310.402 250.064H307.574C307.365 250.064 307.213 249.912 307.194 249.703L306.625 238.468C306.625 238.373 306.663 238.259 306.72 238.183C306.796 238.107 306.891 238.069 306.986 238.069H310.933C311.028 238.069 311.142 238.107 311.199 238.183C311.275 238.259 311.313 238.354 311.294 238.468L310.743 249.703C310.781 249.912 310.61 250.064 310.402 250.064ZM307.935 249.304H310.041L310.554 238.828H307.403L307.935 249.304Z" fill="#D0BBBB"/>
<path d="M154.362 241.049C154.229 241.049 154.096 241.03 153.982 240.973L150.49 239.36C150.035 239.151 149.826 238.601 150.035 238.146L150.737 236.627C150.623 236.457 150.509 236.267 150.395 236.096C150.3 235.906 150.206 235.716 150.111 235.527L148.46 235.318C147.947 235.261 147.606 234.786 147.662 234.293L148.137 230.478C148.175 230.232 148.289 230.023 148.479 229.871C148.668 229.719 148.915 229.662 149.162 229.681L150.813 229.89C151.06 229.567 151.344 229.264 151.667 228.979L151.363 227.347C151.325 227.1 151.363 226.853 151.515 226.664C151.648 226.455 151.857 226.322 152.103 226.284L155.88 225.582C156.373 225.487 156.867 225.81 156.962 226.322L157.265 227.954C157.645 228.087 157.987 228.258 158.328 228.448L159.79 227.632C159.998 227.518 160.245 227.48 160.492 227.556C160.72 227.632 160.928 227.783 161.042 227.992L162.902 231.351C163.149 231.788 162.997 232.357 162.541 232.604L161.08 233.42C161.08 233.819 161.023 234.198 160.947 234.578L162.181 235.697C162.56 236.039 162.579 236.627 162.238 236.988L159.638 239.816C159.467 240.005 159.239 240.1 158.992 240.119C158.746 240.138 158.518 240.043 158.328 239.873L157.095 238.753C156.696 238.886 156.298 238.962 155.88 239L155.178 240.518C155.026 240.84 154.703 241.049 154.362 241.049ZM149.048 230.421C149.01 230.421 148.972 230.44 148.953 230.459C148.934 230.478 148.896 230.516 148.896 230.573L148.422 234.388C148.403 234.483 148.479 234.559 148.554 234.559L150.433 234.786C150.566 234.805 150.699 234.9 150.737 235.033C150.832 235.261 150.927 235.489 151.06 235.716C151.173 235.925 151.325 236.134 151.477 236.343C151.572 236.457 151.572 236.608 151.515 236.741L150.718 238.468C150.68 238.544 150.718 238.639 150.794 238.677L154.286 240.29C154.362 240.328 154.457 240.29 154.495 240.214L155.292 238.506C155.349 238.373 155.481 238.297 155.614 238.278C156.108 238.259 156.601 238.165 157.057 237.994C157.19 237.937 157.341 237.975 157.436 238.07L158.822 239.341C158.879 239.398 158.992 239.379 159.049 239.322L161.649 236.494C161.706 236.438 161.706 236.324 161.63 236.267L160.226 234.976C160.112 234.881 160.074 234.729 160.112 234.597C160.245 234.141 160.283 233.667 160.283 233.192C160.283 233.059 160.359 232.927 160.473 232.851L162.124 231.94C162.2 231.902 162.238 231.807 162.181 231.731L160.321 228.372C160.302 228.315 160.245 228.296 160.226 228.296C160.207 228.296 160.15 228.277 160.112 228.315L158.461 229.226C158.328 229.302 158.195 229.283 158.063 229.207C157.664 228.941 157.227 228.751 156.772 228.6C156.639 228.562 156.544 228.448 156.506 228.315L156.165 226.455C156.146 226.36 156.07 226.303 155.975 226.322L152.198 227.024C152.122 227.043 152.046 227.138 152.065 227.214L152.407 229.074C152.426 229.207 152.388 229.359 152.274 229.435C151.895 229.738 151.553 230.099 151.268 230.516C151.192 230.63 151.06 230.706 150.908 230.668L149.029 230.44C149.067 230.421 149.048 230.421 149.048 230.421Z" fill="#D0BBBB"/>
<path d="M155.366 236.456C155.081 236.456 154.778 236.418 154.493 236.343C153.677 236.115 153.013 235.583 152.614 234.843C152.216 234.103 152.102 233.268 152.349 232.452C152.576 231.655 153.108 230.972 153.848 230.573C154.588 230.175 155.423 230.061 156.239 230.288C157.055 230.516 157.719 231.048 158.118 231.788C158.517 232.528 158.63 233.363 158.384 234.179C158.156 234.976 157.625 235.659 156.884 236.058C156.429 236.324 155.898 236.456 155.366 236.456ZM155.385 230.934C154.987 230.934 154.588 231.029 154.227 231.237C153.677 231.541 153.26 232.053 153.089 232.661C152.918 233.268 152.994 233.913 153.297 234.464C153.601 235.014 154.114 235.413 154.721 235.602C155.328 235.773 155.973 235.697 156.543 235.394C157.093 235.09 157.511 234.578 157.681 233.97C157.852 233.363 157.776 232.718 157.473 232.167C157.169 231.617 156.657 231.218 156.049 231.029C155.822 230.953 155.594 230.934 155.385 230.934Z" fill="#D0BBBB"/>
<path d="M360.325 307.17C360.116 307.17 359.945 306.999 359.945 306.79V292.5C359.945 292.291 360.116 292.12 360.325 292.12C360.534 292.12 360.704 292.291 360.704 292.5V306.79C360.704 306.999 360.534 307.17 360.325 307.17Z" fill="#D0BBBB"/>
<path d="M377.386 307.169H19.3796C19.1708 307.169 19 306.998 19 306.79C19 306.581 19.1708 306.41 19.3796 306.41H377.386C377.595 306.41 377.766 306.581 377.766 306.79C377.766 306.998 377.595 307.169 377.386 307.169Z" fill="#D0BBBB"/>
<path d="M567.206 299.635C561.892 299.635 557.584 294.401 557.584 287.944C557.584 281.487 561.892 276.253 567.206 276.253C572.52 276.253 576.828 281.487 576.828 287.944C576.828 294.401 572.52 299.635 567.206 299.635Z" fill="#DBC9C9"/>
<path d="M567.206 307.169C567.415 307.169 567.586 306.999 567.586 306.79V292.499C567.586 292.29 567.415 292.12 567.206 292.12C566.998 292.12 566.827 292.29 566.827 292.499V306.79C566.827 306.999 566.998 307.169 567.206 307.169Z" fill="#D0BBBB"/>
<path d="M581.842 300.014C587.365 300.014 591.844 294.606 591.844 287.944C591.844 281.283 587.365 275.874 581.842 275.874C576.32 275.874 571.841 281.283 571.841 287.944C571.841 294.606 576.32 300.014 581.842 300.014ZM581.842 276.652C586.947 276.652 591.085 281.719 591.085 287.963C591.085 294.207 586.928 299.274 581.842 299.274C576.756 299.274 572.6 294.207 572.6 287.963C572.6 281.719 576.737 276.652 581.842 276.652Z" fill="#D0BBBB"/>
<path d="M581.839 307.169C582.048 307.169 582.219 306.999 582.219 306.79V292.499C582.219 292.29 582.048 292.12 581.839 292.12C581.63 292.12 581.46 292.29 581.46 292.499V306.79C581.46 306.999 581.63 307.169 581.839 307.169Z" fill="#D0BBBB"/>
<path d="M508.717 307.016H544.87C545.079 307.016 545.25 306.846 545.25 306.637V264.296C545.25 264.088 545.079 263.917 544.87 263.917H535.78V239.871C535.78 239.663 535.609 239.492 535.4 239.492H518.168C517.959 239.492 517.788 239.663 517.788 239.871V263.917H508.698C508.489 263.917 508.318 264.088 508.318 264.296V306.637C508.337 306.846 508.508 307.016 508.717 307.016ZM544.491 306.257H509.077V264.676H518.168C518.377 264.676 518.548 264.505 518.548 264.296V240.251H535.021V264.296C535.021 264.505 535.192 264.676 535.4 264.676H544.491V306.257Z" fill="#D0BBBB"/>
<path d="M522.341 246.855H531.261C531.47 246.855 531.641 246.684 531.641 246.475C531.641 246.267 531.47 246.096 531.261 246.096H522.341C522.133 246.096 521.962 246.267 521.962 246.475C521.962 246.684 522.114 246.855 522.341 246.855Z" fill="#D0BBBB"/>
<path d="M522.341 252.548H531.261C531.47 252.548 531.641 252.377 531.641 252.169C531.641 251.96 531.47 251.789 531.261 251.789H522.341C522.133 251.789 521.962 251.96 521.962 252.169C521.962 252.377 522.114 252.548 522.341 252.548Z" fill="#D0BBBB"/>
<path d="M522.341 258.243H531.261C531.47 258.243 531.641 258.072 531.641 257.863C531.641 257.654 531.47 257.483 531.261 257.483H522.341C522.133 257.483 521.962 257.654 521.962 257.863C521.962 258.072 522.114 258.243 522.341 258.243Z" fill="#D0BBBB"/>
<path d="M518.193 264.676H535.425C535.634 264.676 535.805 264.505 535.805 264.296C535.805 264.087 535.634 263.917 535.425 263.917H518.193C517.984 263.917 517.813 264.087 517.813 264.296C517.813 264.505 517.965 264.676 518.193 264.676Z" fill="#D0BBBB"/>
<path d="M515.132 285.552H538.456C538.665 285.552 538.836 285.381 538.836 285.172C538.836 284.963 538.665 284.792 538.456 284.792H515.132C514.923 284.792 514.752 284.963 514.752 285.172C514.752 285.381 514.923 285.552 515.132 285.552Z" fill="#D0BBBB"/>
<path d="M515.132 291.643H538.456C538.665 291.643 538.836 291.473 538.836 291.264C538.836 291.055 538.665 290.884 538.456 290.884H515.132C514.923 290.884 514.752 291.055 514.752 291.264C514.752 291.473 514.923 291.643 515.132 291.643Z" fill="#D0BBBB"/>
<path d="M514.388 272.115H518.734V276.461H514.388V272.115Z" fill="#DBC9C9"/>
<path d="M524.615 272.115H528.961V276.461H524.615V272.115Z" fill="#DBC9C9"/>
<path d="M534.849 272.115H539.195V276.461H534.849V272.115Z" fill="#DBC9C9"/>
<path d="M453.146 307.131H487.269C487.478 307.131 487.648 306.96 487.648 306.751V212.505C487.648 212.296 487.478 212.125 487.269 212.125H475.407C475.199 212.125 475.028 212.296 475.028 212.505V247.311H453.146C452.937 247.311 452.766 247.482 452.766 247.691V306.751C452.766 306.96 452.937 307.131 453.146 307.131ZM486.889 306.372H453.525V248.07H475.407C475.616 248.07 475.787 247.899 475.787 247.691V212.885H486.889V306.372Z" fill="#D0BBBB"/>
<path d="M459.716 266.973H468.636C468.845 266.973 469.016 266.802 469.016 266.593C469.016 266.384 468.845 266.213 468.636 266.213H459.716C459.508 266.213 459.337 266.384 459.337 266.593C459.337 266.802 459.489 266.973 459.716 266.973Z" fill="#D0BBBB"/>
<path d="M459.716 272.666H468.636C468.845 272.666 469.016 272.495 469.016 272.286C469.016 272.077 468.845 271.907 468.636 271.907H459.716C459.508 271.907 459.337 272.077 459.337 272.286C459.337 272.495 459.489 272.666 459.716 272.666Z" fill="#D0BBBB"/>
<path d="M459.716 278.36H468.636C468.845 278.36 469.016 278.189 469.016 277.981C469.016 277.772 468.845 277.601 468.636 277.601H459.716C459.508 277.601 459.337 277.772 459.337 277.981C459.337 278.189 459.489 278.36 459.716 278.36Z" fill="#D0BBBB"/>
<path d="M481.636 306.998C481.845 306.998 482.016 306.828 482.016 306.619V212.486C482.016 212.278 481.845 212.107 481.636 212.107C481.427 212.107 481.256 212.278 481.256 212.486V306.619C481.256 306.828 481.427 306.998 481.636 306.998Z" fill="#D0BBBB"/>
<path d="M475.417 307.131C475.626 307.131 475.797 306.96 475.797 306.751V247.691C475.797 247.482 475.626 247.311 475.417 247.311C475.209 247.311 475.038 247.482 475.038 247.691V306.751C475.038 306.96 475.209 307.131 475.417 307.131Z" fill="#D0BBBB"/>
<path d="M400.384 307.169H431.699C431.907 307.169 432.078 306.998 432.078 306.789V229.567C432.078 229.358 431.907 229.187 431.699 229.187H400.384C400.176 229.187 400.005 229.358 400.005 229.567V306.789C400.005 306.998 400.157 307.169 400.384 307.169ZM431.319 306.41H400.764V229.946H431.319V306.41Z" fill="#D0BBBB"/>
<path d="M408.748 233.59H413.094V237.936H408.748V233.59Z" fill="#DBC9C9"/>
<path d="M418.982 233.59H423.328V237.936H418.982V233.59Z" fill="#DBC9C9"/>
<path d="M400.592 242.87H431.527C431.735 242.87 431.906 242.699 431.906 242.49C431.906 242.282 431.735 242.111 431.527 242.111H400.592C400.383 242.111 400.213 242.282 400.213 242.49C400.213 242.699 400.383 242.87 400.592 242.87Z" fill="#D0BBBB"/>
<path d="M412.303 253.84H419.742V284.49H412.303V253.84Z" fill="#DBC9C9"/>
<path d="M411.487 307.169H420.597C420.806 307.169 420.977 306.998 420.977 306.789V298.685C420.977 295.971 418.756 293.751 416.042 293.751C413.328 293.751 411.108 295.971 411.108 298.685V306.789C411.108 306.998 411.279 307.169 411.487 307.169ZM420.217 306.41H411.867V298.685C411.867 296.389 413.746 294.51 416.042 294.51C418.339 294.51 420.217 296.389 420.217 298.685V306.41Z" fill="#D0BBBB"/>
<path d="M345.121 307.168H378.941C379.15 307.168 379.32 306.997 379.32 306.788V250.689C379.32 250.48 379.15 250.309 378.941 250.309H345.121C344.913 250.309 344.742 250.48 344.742 250.689V306.788C344.742 306.997 344.894 307.168 345.121 307.168ZM378.542 306.409H345.482V251.068H378.542V306.409Z" fill="#D0BBBB"/>
<path d="M350.724 264.372H373.308C373.517 264.372 373.688 264.201 373.688 263.993V259.628C373.688 259.419 373.517 259.248 373.308 259.248H350.724C350.515 259.248 350.344 259.419 350.344 259.628V263.993C350.344 264.201 350.515 264.372 350.724 264.372ZM372.928 263.613H351.103V260.007H372.928V263.613Z" fill="#D0BBBB"/>
<path d="M367.034 307.168C367.243 307.168 367.414 306.997 367.414 306.789V272.628C367.414 272.419 367.243 272.248 367.034 272.248C366.826 272.248 366.655 272.419 366.655 272.628V306.789C366.655 306.997 366.826 307.168 367.034 307.168Z" fill="#D0BBBB"/>
<path d="M356.98 307.168C357.189 307.168 357.359 306.997 357.359 306.789V272.628C357.359 272.419 357.189 272.248 356.98 272.248C356.771 272.248 356.6 272.419 356.6 272.628V306.789C356.6 306.997 356.771 307.168 356.98 307.168Z" fill="#D0BBBB"/>
<path d="M350.728 270.578H373.312V274.943H350.728V270.578Z" fill="#DBC9C9"/>
<path d="M293.906 307.055H323.683C323.892 307.055 324.062 306.884 324.062 306.676V269.156C324.062 268.947 323.892 268.776 323.683 268.776H319.185V263.31C319.185 263.101 319.014 262.931 318.806 262.931H298.802C298.594 262.931 298.423 263.101 298.423 263.31V268.776H293.925C293.716 268.776 293.545 268.947 293.545 269.156V306.676C293.526 306.903 293.697 307.055 293.906 307.055ZM323.284 306.296H294.267V269.535H298.764C298.973 269.535 299.144 269.364 299.144 269.156V263.69H318.388V269.156C318.388 269.364 318.559 269.535 318.768 269.535H323.265V306.296H323.284Z" fill="#D0BBBB"/>
<path d="M304.326 277.032H313.245C313.454 277.032 313.625 276.861 313.625 276.653C313.625 276.444 313.454 276.273 313.245 276.273H304.326C304.117 276.273 303.946 276.444 303.946 276.653C303.946 276.861 304.117 277.032 304.326 277.032Z" fill="#D0BBBB"/>
<path d="M304.326 282.725H313.245C313.454 282.725 313.625 282.555 313.625 282.346C313.625 282.137 313.454 281.966 313.245 281.966H304.326C304.117 281.966 303.946 282.137 303.946 282.346C303.946 282.555 304.117 282.725 304.326 282.725Z" fill="#D0BBBB"/>
<path d="M304.326 288.419H313.245C313.454 288.419 313.625 288.248 313.625 288.04C313.625 287.831 313.454 287.66 313.245 287.66H304.326C304.117 287.66 303.946 287.831 303.946 288.04C303.946 288.248 304.117 288.419 304.326 288.419Z" fill="#D0BBBB"/>
<path d="M298.784 306.448C298.993 306.448 299.164 306.277 299.164 306.068V269.174C299.164 268.966 298.993 268.795 298.784 268.795C298.576 268.795 298.405 268.966 298.405 269.174V306.068C298.405 306.277 298.576 306.448 298.784 306.448Z" fill="#D0BBBB"/>
<path d="M318.792 306.96C319.001 306.96 319.172 306.789 319.172 306.581V269.174C319.172 268.966 319.001 268.795 318.792 268.795C318.584 268.795 318.413 268.966 318.413 269.174V306.581C318.413 306.789 318.584 306.96 318.792 306.96Z" fill="#D0BBBB"/>
<path d="M311.016 254.447C311.016 253.138 310.105 252.189 308.776 252.189C307.467 252.189 306.594 253.138 306.575 254.447C306.575 255.738 307.448 256.706 308.776 256.706C310.124 256.706 311.016 255.738 311.016 254.447Z" fill="#DBC9C9"/>
<path d="M307.364 250.064H310.192C310.4 250.064 310.552 249.912 310.571 249.703L311.141 238.468C311.141 238.373 311.103 238.259 311.046 238.183C310.97 238.107 310.875 238.069 310.78 238.069H306.833C306.738 238.069 306.624 238.107 306.567 238.183C306.491 238.259 306.453 238.354 306.472 238.468L307.022 249.703C306.984 249.912 307.155 250.064 307.364 250.064ZM309.831 249.304H307.725L307.212 238.828H310.362L309.831 249.304Z" fill="#D0BBBB"/>
<path d="M463.404 241.049C463.537 241.049 463.67 241.03 463.783 240.973L467.275 239.36C467.731 239.151 467.94 238.601 467.731 238.146L467.029 236.627C467.143 236.457 467.256 236.267 467.37 236.096C467.465 235.906 467.56 235.716 467.655 235.527L469.306 235.318C469.819 235.261 470.16 234.786 470.103 234.293L469.629 230.478C469.591 230.232 469.477 230.023 469.287 229.871C469.097 229.719 468.851 229.662 468.604 229.681L466.953 229.89C466.706 229.567 466.421 229.264 466.099 228.979L466.402 227.347C466.44 227.1 466.402 226.853 466.251 226.664C466.118 226.455 465.909 226.322 465.662 226.284L461.886 225.582C461.392 225.487 460.899 225.81 460.804 226.322L460.5 227.954C460.121 228.087 459.779 228.258 459.437 228.448L457.976 227.632C457.767 227.518 457.521 227.48 457.274 227.556C457.046 227.632 456.837 227.783 456.723 227.992L454.864 231.351C454.617 231.788 454.769 232.357 455.224 232.604L456.686 233.42C456.686 233.819 456.742 234.198 456.818 234.578L455.585 235.697C455.205 236.039 455.186 236.627 455.528 236.988L458.128 239.816C458.299 240.005 458.526 240.1 458.773 240.119C459.02 240.138 459.248 240.043 459.437 239.873L460.671 238.753C461.07 238.886 461.468 238.962 461.886 239L462.588 240.518C462.74 240.84 463.062 241.049 463.404 241.049ZM468.718 230.421C468.756 230.421 468.794 230.44 468.813 230.459C468.832 230.478 468.87 230.516 468.87 230.573L469.344 234.388C469.363 234.483 469.287 234.559 469.211 234.559L467.332 234.786C467.199 234.805 467.067 234.9 467.029 235.033C466.934 235.261 466.839 235.489 466.706 235.716C466.592 235.925 466.44 236.134 466.289 236.343C466.194 236.457 466.194 236.608 466.251 236.741L467.048 238.468C467.086 238.544 467.048 238.639 466.972 238.677L463.48 240.29C463.404 240.328 463.309 240.29 463.271 240.214L462.474 238.506C462.417 238.373 462.284 238.297 462.151 238.278C461.658 238.259 461.164 238.165 460.709 237.994C460.576 237.937 460.424 237.975 460.329 238.07L458.944 239.341C458.887 239.398 458.773 239.379 458.716 239.322L456.116 236.494C456.059 236.438 456.059 236.324 456.135 236.267L457.54 234.976C457.653 234.881 457.691 234.729 457.653 234.597C457.521 234.141 457.483 233.667 457.483 233.192C457.483 233.059 457.407 232.927 457.293 232.851L455.642 231.94C455.566 231.902 455.528 231.807 455.585 231.731L457.445 228.372C457.464 228.315 457.521 228.296 457.54 228.296C457.559 228.296 457.615 228.277 457.653 228.315L459.305 229.226C459.437 229.302 459.57 229.283 459.703 229.207C460.102 228.941 460.538 228.751 460.994 228.6C461.126 228.562 461.221 228.448 461.259 228.315L461.601 226.455C461.62 226.36 461.696 226.303 461.791 226.322L465.567 227.024C465.643 227.043 465.719 227.138 465.7 227.214L465.359 229.074C465.34 229.207 465.378 229.359 465.491 229.435C465.871 229.738 466.213 230.099 466.497 230.516C466.573 230.63 466.706 230.706 466.858 230.668L468.737 230.44C468.699 230.421 468.718 230.421 468.718 230.421Z" fill="#D0BBBB"/>
<path d="M462.4 236.456C462.684 236.456 462.988 236.418 463.273 236.343C464.089 236.115 464.753 235.583 465.151 234.843C465.55 234.103 465.664 233.268 465.417 232.452C465.189 231.655 464.658 230.972 463.918 230.573C463.178 230.175 462.343 230.061 461.527 230.288C460.71 230.516 460.046 231.048 459.648 231.788C459.249 232.528 459.135 233.363 459.382 234.179C459.61 234.976 460.141 235.659 460.881 236.058C461.337 236.324 461.868 236.456 462.4 236.456ZM462.381 230.934C462.779 230.934 463.178 231.029 463.538 231.237C464.089 231.541 464.506 232.053 464.677 232.661C464.848 233.268 464.772 233.913 464.468 234.464C464.164 235.014 463.652 235.413 463.045 235.602C462.437 235.773 461.792 235.697 461.223 235.394C460.672 235.09 460.255 234.578 460.084 233.97C459.913 233.363 459.989 232.718 460.293 232.167C460.597 231.617 461.109 231.218 461.716 231.029C461.944 230.953 462.172 230.934 462.381 230.934Z" fill="#D0BBBB"/>
<path d="M240.38 307.169H598.386C598.595 307.169 598.766 306.998 598.766 306.79C598.766 306.581 598.595 306.41 598.386 306.41H240.38C240.171 306.41 240 306.581 240 306.79C240 306.998 240.171 307.169 240.38 307.169Z" fill="#D0BBBB"/>
<g clip-path="url(#clip0_1621_225)">
<mask id="mask0_1621_225" style="mask-type:luminance" maskUnits="userSpaceOnUse" x="198" y="124" width="185" height="185">
<path d="M198 124.001H382.999V309H198V124.001Z" fill="white"/>
</mask>
<g mask="url(#mask0_1621_225)">
<path d="M341.079 306.29H239.918C233.931 306.29 229.078 301.437 229.078 295.45V167.55C229.078 161.564 233.931 156.71 239.918 156.71H341.079C347.065 156.71 351.919 161.564 351.919 167.55V295.45C351.919 301.437 347.065 306.29 341.079 306.29Z" fill="#E0CBCB"/>
<path d="M341.082 156.71H330.242C336.229 156.71 341.082 161.564 341.082 167.55V295.45C341.082 301.437 336.229 306.29 330.242 306.29H341.082C347.068 306.29 351.922 301.437 351.922 295.45V167.55C351.922 161.564 347.068 156.71 341.082 156.71Z" fill="#BFA4A4"/>
</g>
<path d="M262.976 193.911C266.277 193.911 268.952 191.245 268.952 187.956C268.952 184.666 266.277 182 262.976 182C259.676 182 257 184.666 257 187.956C257 191.245 259.676 193.911 262.976 193.911Z" fill="#9A7B7B"/>
<path d="M310.179 193.911C313.48 193.911 316.155 191.245 316.155 187.956C316.155 184.666 313.48 182 310.179 182C306.879 182 304.203 184.666 304.203 187.956C304.203 191.245 306.879 193.911 310.179 193.911Z" fill="#9A7B7B"/>
<path d="M295.697 200.145C295.402 200.303 295.036 200.193 294.877 199.899C294.849 199.847 294.819 199.796 294.789 199.746C294.383 199.071 291.332 194.1 285.518 194.1C279.871 194.1 278.459 199.446 278.412 199.68L278.407 199.701C278.305 200.081 277.919 200.31 277.537 200.218L277.492 200.207C277.139 200.123 276.916 199.774 276.987 199.418C276.996 199.374 277.004 199.334 277.016 199.29C277.196 198.618 279.056 192.693 285.471 192.693C292.529 192.693 295.917 198.93 296.058 199.164C296.24 199.501 296.114 199.921 295.777 200.102L295.697 200.145Z" fill="#9A7B7B"/>
<path fill-rule="evenodd" clip-rule="evenodd" d="M289.449 265.352C289.449 265.451 289.488 265.546 289.559 265.616C289.629 265.686 289.724 265.726 289.823 265.726H295.579L285.496 277.734L275.414 265.726H281.17C281.269 265.726 281.365 265.687 281.435 265.616C281.505 265.546 281.544 265.451 281.545 265.352V244.11H289.449L289.449 265.352Z" fill="#9A7B7B"/>
<path fill-rule="evenodd" clip-rule="evenodd" d="M290.2 243.737C290.2 243.687 290.19 243.639 290.171 243.593C290.153 243.548 290.125 243.507 290.09 243.472C290.056 243.437 290.014 243.41 289.969 243.391C289.923 243.372 289.875 243.362 289.826 243.362H281.173C281.124 243.362 281.075 243.372 281.03 243.391C280.984 243.41 280.943 243.437 280.908 243.472C280.874 243.507 280.846 243.548 280.827 243.593C280.809 243.639 280.799 243.687 280.799 243.737V260.185H268.366C265.658 260.185 263.116 259.122 261.198 257.211C259.26 255.28 258.188 252.71 258.188 249.974C258.188 244.342 262.768 239.762 268.399 239.762C269.581 239.761 270.754 239.965 271.866 240.366C271.96 240.399 272.063 240.394 272.153 240.351C272.243 240.309 272.312 240.232 272.346 240.138C274.466 234.147 280.162 230.126 286.517 230.126C293.579 230.126 299.769 235.131 301.223 242.045C301.234 242.093 301.254 242.14 301.282 242.181C301.311 242.222 301.347 242.257 301.389 242.283C301.431 242.31 301.478 242.328 301.527 242.337C301.576 242.345 301.626 242.344 301.675 242.333C302.992 242.021 304.359 242.004 305.682 242.292C307.035 242.586 308.296 243.189 309.381 244.047C311.561 245.773 312.811 248.356 312.811 251.137C312.811 253.562 311.86 255.839 310.142 257.551C308.443 259.244 306.192 260.186 303.793 260.186H290.2V243.737Z" fill="#BFA0A0"/>
<path fill-rule="evenodd" clip-rule="evenodd" d="M310.058 257.467C308.375 259.144 306.152 260.067 303.792 260.067H290.317V243.737C290.317 243.672 290.304 243.608 290.279 243.548C290.255 243.488 290.218 243.434 290.173 243.388C290.127 243.343 290.072 243.306 290.013 243.282C289.953 243.257 289.889 243.244 289.824 243.244H281.171C281.107 243.244 281.043 243.257 280.983 243.282C280.923 243.306 280.869 243.343 280.823 243.388C280.778 243.434 280.742 243.488 280.717 243.548C280.692 243.608 280.68 243.672 280.68 243.737V260.067H268.365C265.697 260.067 263.182 259.024 261.28 257.127C259.361 255.215 258.304 252.674 258.304 249.973C258.304 244.407 262.833 239.88 268.398 239.88C269.566 239.878 270.726 240.081 271.825 240.477C271.886 240.499 271.951 240.509 272.016 240.505C272.08 240.502 272.144 240.486 272.203 240.458C272.262 240.431 272.314 240.392 272.358 240.344C272.401 240.295 272.435 240.239 272.456 240.178C274.56 234.236 280.209 230.244 286.516 230.244C293.528 230.244 299.664 235.216 301.107 242.069C301.12 242.133 301.146 242.194 301.184 242.248C301.221 242.302 301.269 242.348 301.324 242.383C301.38 242.418 301.442 242.442 301.506 242.453C301.571 242.464 301.637 242.462 301.701 242.447C304.376 241.814 307.148 242.432 309.306 244.14C311.458 245.843 312.692 248.392 312.692 251.136C312.691 253.527 311.756 255.775 310.058 257.467ZM295.327 265.844H289.824C289.694 265.844 289.569 265.792 289.476 265.7C289.384 265.607 289.332 265.482 289.332 265.352V244.228H281.664V265.352C281.664 265.482 281.612 265.608 281.52 265.7C281.427 265.792 281.302 265.844 281.172 265.844H275.669L285.498 277.55L295.327 265.844ZM309.918 243.369C307.652 241.576 304.777 240.865 301.96 241.386C301.151 238.061 299.258 235.049 296.594 232.862C293.763 230.539 290.185 229.26 286.516 229.26C279.956 229.26 274.062 233.313 271.697 239.395C270.633 239.063 269.525 238.895 268.398 238.895C262.29 238.895 257.32 243.864 257.32 249.973C257.32 252.939 258.48 255.727 260.584 257.825C262.673 259.906 265.435 261.051 268.363 261.051H280.68V264.859H274.612C274.519 264.859 274.427 264.886 274.348 264.936C274.269 264.987 274.206 265.059 274.166 265.144C274.127 265.229 274.112 265.323 274.124 265.416C274.137 265.509 274.175 265.596 274.236 265.668L285.122 278.632C285.168 278.687 285.225 278.731 285.29 278.762C285.355 278.792 285.426 278.808 285.498 278.808C285.57 278.808 285.641 278.792 285.706 278.762C285.771 278.731 285.829 278.687 285.874 278.632L296.761 265.668C296.821 265.596 296.86 265.509 296.872 265.416C296.884 265.323 296.869 265.228 296.83 265.144C296.79 265.059 296.727 264.987 296.648 264.936C296.569 264.886 296.478 264.859 296.384 264.859H290.317V261.051H303.794C306.414 261.05 308.884 260.026 310.753 258.164C312.638 256.287 313.676 253.792 313.676 251.136C313.676 248.09 312.306 245.259 309.918 243.369Z" fill="#9A7B7B"/>
</g>
<path d="M359.639 281.321C359.639 281.321 356.166 288.684 356.391 291.674C356.584 294.664 356.809 298.136 356.809 298.136C356.809 298.136 350.25 298.619 346.488 293.249C342.727 287.88 345.974 286.401 345.974 286.401L353.626 276.787L359.639 281.321Z" fill="#DFAF9A"/>
<path d="M346.042 286.047C346.042 286.047 342.666 286.305 340.415 288.62C338.165 290.935 337.264 292.414 338.679 294.118C340.126 295.854 344.241 297.719 345.27 299.294C346.299 300.87 348.518 303.12 352.151 306.111C355.784 309.101 365.848 308.522 367.005 306.721C367.552 305.885 363.211 303.731 360.671 301.32C357.778 298.587 356.62 295.597 356.62 295.597C356.62 295.597 351.443 294.471 348.968 291.578C346.556 288.684 346.042 286.047 346.042 286.047Z" fill="#111214"/>
<path d="M383.659 286.08C383.659 286.08 385.106 294.15 387.196 296.304C389.286 298.458 391.665 300.966 391.665 300.966C391.665 300.966 386.971 305.564 380.637 303.86C374.303 302.156 375.814 298.941 375.814 298.941L376.168 286.465L383.659 286.08Z" fill="#DFAF9A"/>
<path d="M375.617 298.619C375.617 298.619 373.205 300.998 372.98 304.213C372.755 307.428 373.012 309.133 375.199 309.518C377.417 309.904 381.758 308.682 383.558 309.229C385.359 309.776 388.51 310.065 393.236 310.001C397.963 309.968 405.004 308.264 404.715 306.142C404.425 304.02 389.892 299.069 389.892 299.069C389.892 299.069 385.23 301.545 381.469 300.934C377.707 300.323 375.617 298.619 375.617 298.619Z" fill="#111214"/>
<path d="M383.053 187.854C383.053 187.854 393.663 207.531 395.753 230.392C397.457 248.911 358.778 285.147 358.778 285.147L350 279.746L370.674 234.25L367.973 209.814L369.131 186.471L383.053 187.854Z" fill="url(#paint0_linear_1621_225)"/>
<path d="M353.017 186.664C353.017 186.664 350.895 194.284 351.281 206.406C351.667 218.527 375.074 293.539 375.074 293.539L386.327 293.378C386.327 293.378 384.495 254.699 383.209 236.404C382.598 227.755 380.154 211.325 380.701 206.631C381.247 201.904 383.048 187.918 383.048 187.918L353.017 186.664Z" fill="url(#paint1_linear_1621_225)"/>
<path d="M367.624 125.606C359.65 127.085 374.569 156.441 380.099 162.871C385.629 169.302 407.622 158.241 407.622 158.241L405.435 150.782L389.745 151.136C389.745 151.136 384.472 141.168 381.61 134.448C378.717 127.696 373.122 124.578 367.624 125.606Z" fill="url(#paint2_linear_1621_225)"/>
<path d="M367.519 123.42C379.383 126.86 381.666 132.23 383.981 141.457C386.296 150.685 387.035 180.426 385.524 187.95C384.013 195.474 355.622 193.512 352.922 192.033C350.221 190.586 351.796 180.619 351.185 168.755C350.575 156.858 347.809 148.563 350.221 137.856C352.6 127.182 358.066 120.655 367.519 123.42Z" fill="url(#paint3_linear_1621_225)"/>
<path d="M413.18 154.286C414.466 154.704 415.881 154.029 416.331 152.711L425.88 124.192C426.298 122.906 425.623 121.491 424.305 121.041C423.019 120.623 421.604 121.298 421.154 122.616L411.605 151.135C411.187 152.422 411.894 153.836 413.18 154.286Z" fill="#9DA1CC"/>
<path d="M419.604 143.033C418.061 142.004 413.077 143.74 408.48 147.277C403.882 150.814 403.978 153.74 403.978 153.74L398.352 155.894L401.181 163.289L408.415 160.524C408.415 160.524 412.37 160.46 416.518 157.437C420.665 154.415 417.836 147.856 417.836 147.856C417.836 147.856 421.18 144.062 419.604 143.033Z" fill="#DFAF9A"/>
<path d="M354.267 130.847C346.294 132.326 358.222 167.855 363.752 174.285C369.283 180.716 403.107 163.192 403.107 163.192L398.863 155.283L370.955 162.614C370.955 162.614 369.636 147.888 366.743 141.136C363.849 134.416 359.765 129.818 354.267 130.847Z" fill="url(#paint4_linear_1621_225)"/>
<path d="M373.41 115.125L370.999 123.581L374.567 126.539C374.567 126.539 376.625 130.365 367.944 129.786C359.263 129.208 358.523 123.967 358.523 123.967L361.063 122.295L362.607 112.07L373.41 115.125Z" fill="#E2A990"/>
<path d="M360.351 102.939C358.904 113.774 366.492 121.652 373.212 123.356C379.932 125.092 385.462 114.867 386.684 105.125C387.198 100.881 387.649 96.3475 386.202 93.5181C384.305 89.8849 380.961 87.5699 376.588 87.0233C368.839 86.0909 361.669 93.2287 360.351 102.939Z" fill="#DFAF9A"/>
<path d="M362.637 101.363C362.637 101.363 360.708 95.9297 358.071 96.7978C355.435 97.6659 356.56 102.232 357.846 104.321C359.132 106.411 361.736 106.508 361.736 106.508L362.637 101.363Z" fill="#DFAF9A"/>
<path d="M362.212 101.942C362.726 101.942 363.209 101.974 363.691 102.039C364.109 100.045 364.688 97.6658 365.363 96.2832C366.681 93.6789 369.896 90.11 369.896 90.11C369.896 90.11 377.034 92.4571 380.475 92.6822C383.915 92.8751 387.998 92.2642 389.606 90.4637C391.214 88.6953 394.011 82.6184 394.011 82.6184L386.744 82.0397L388.545 79.0174L380.7 79.6283L380.475 77.5062L376.97 78.2779L376.23 75.9629C376.23 75.9629 362.148 80.7214 360.186 87.2484C358.225 93.7754 358 96.7977 358 96.7977C358 96.7977 359.543 97.1835 361.472 99.2091C362.083 99.8522 362.276 100.849 362.212 101.942Z" fill="#111214"/>
<defs>
<linearGradient id="paint0_linear_1621_225" x1="372.322" y1="233.235" x2="328.17" y2="246.901" gradientUnits="userSpaceOnUse">
<stop stop-color="#494B50"/>
<stop offset="1" stop-color="#686B74"/>
</linearGradient>
<linearGradient id="paint1_linear_1621_225" x1="367.248" y1="198.344" x2="373.556" y2="283.494" gradientUnits="userSpaceOnUse">
<stop stop-color="#515459"/>
<stop offset="1" stop-color="#737680"/>
</linearGradient>
<linearGradient id="paint2_linear_1621_225" x1="371.997" y1="144.377" x2="436.402" y2="169.97" gradientUnits="userSpaceOnUse">
<stop stop-color="#9CA2B6"/>
<stop offset="1" stop-color="#4D536A"/>
</linearGradient>
<linearGradient id="paint3_linear_1621_225" x1="353.914" y1="142.2" x2="375.417" y2="186.574" gradientUnits="userSpaceOnUse">
<stop stop-color="#848896"/>
<stop offset="1" stop-color="#636673"/>
</linearGradient>
<linearGradient id="paint4_linear_1621_225" x1="359.723" y1="152.325" x2="436.679" y2="184.986" gradientUnits="userSpaceOnUse">
<stop stop-color="#9CA2B6"/>
<stop offset="1" stop-color="#6B7289"/>
</linearGradient>
<clipPath id="clip0_1621_225">
<rect width="185" height="185" fill="white" transform="translate(198 124)"/>
</clipPath>
</defs>
</svg>
